<?xml version="1.0" encoding="UTF-8" standalone="no"?>
<svg xmlns:dc="http://purl.org/dc/elements/1.1/" xmlns:cc="http://creativecommons.org/ns#" xmlns:rdf="http://www.w3.org/1999/02/22-rdf-syntax-ns#" xmlns:svg="http://www.w3.org/2000/svg" xmlns="http://www.w3.org/2000/svg" xmlns:sodipodi="http://sodipodi.sourceforge.net/DTD/sodipodi-0.dtd" xmlns:inkscape="http://www.inkscape.org/namespaces/inkscape" height="1072" version="1.1" width="1072" id="svg2985" inkscape:version="0.48.5 r10040" sodipodi:docname="Dell_logo_2016.svg">
  <metadata id="metadata2993">
    <rdf:RDF>
      <cc:Work rdf:about="">
        <dc:format>image/svg+xml</dc:format>
        <dc:type rdf:resource="http://purl.org/dc/dcmitype/StillImage" />
      </cc:Work>
    </rdf:RDF>
  </metadata>
  <defs id="defs2991" />
  <sodipodi:namedview pagecolor="#ffffff" bordercolor="#666666" borderopacity="1" objecttolerance="10" gridtolerance="10" guidetolerance="10" inkscape:pageopacity="0" inkscape:pageshadow="2" inkscape:window-width="1366" inkscape:window-height="706" id="namedview2989" showgrid="false" fit-margin-top="0" fit-margin-left="0" fit-margin-right="0" fit-margin-bottom="0" inkscape:zoom="6.375" inkscape:cx="36" inkscape:cy="36.0001" inkscape:window-x="-8" inkscape:window-y="-8" inkscape:window-maximized="1" inkscape:current-layer="svg2985" />
  <path d="M 498.46511,402.87696 365.32867,505.29762 C 351.67556,454.07984 307.27689,416.51518 252.64956,416.51518 h -95.58518 v 235.572 h 95.58518 c 54.62435,0 102.41322,-37.57062 112.65528,-88.78096 L 498.46213,665.7254 631.61942,563.30622 v 88.78096 H 781.81853 V 604.28044 H 682.83124 V 416.51667 h -54.64073 v 88.75117 l -126.32329,102.44896 -27.32111,-23.91156 61.47622,-47.80822 64.84856,-51.21033 -37.54233,-30.70833 -126.32329,98.98728 -27.30623,-23.90411 126.32329,-95.58517 -37.57062,-30.70834 z m -290.18444,61.41666 h 40.97422 c 8.53505,0 16.86167,1.94628 24.54284,5.46705 7.68148,3.52078 14.70129,8.63303 20.6762,15.0348 5.97462,6.40133 10.89331,14.06971 14.30733,22.71151 3.41402,8.64181 5.32159,18.25676 5.32159,28.49883 0,9.38863 -1.7091,18.56197 -4.85631,27.04417 -3.14736,8.48176 -7.73195,16.27058 -13.49306,22.88572 -5.7611,6.61468 -12.68875,12.06104 -20.53028,15.84922 -7.84154,3.78743 -16.58027,5.90314 -25.96772,5.90314 h -40.97422 v -143.3934 z m 744.25089,140.00171 v 47.79631 h -150.214 v -235.572 h 54.62435 v 187.76378 h 95.59262 z M 536,0 C 242.39111,0 0,242.39111 0,536 c 0,293.60889 238.98156,536 536,536 297.01844,0 536,-238.98156 536,-536 C 1072,238.98156 829.60889,0 536,0 z m 0,54.64073 c 33.2856,-3.7e-4 65.76124,3.34062 97.12618,9.7418 31.36642,6.40118 61.63255,15.84178 90.43809,28.00451 28.80553,12.16244 56.16833,27.06354 81.77275,44.34656 25.60442,17.28302 49.45196,36.94827 71.21654,58.71284 21.76457,21.76458 41.42833,45.61212 58.71284,71.21654 17.28302,25.60442 32.18382,52.96722 44.34656,81.77275 12.16243,28.80554 21.60224,59.07316 28.00454,90.43809 6.4013,31.36642 9.7418,63.84058 9.7418,97.12618 0,33.2856 -3.3405,65.76124 -9.7418,97.12618 -6.4014,31.36642 -15.84181,61.63255 -28.00454,90.43809 -12.16244,28.80553 -27.06354,56.16833 -44.34656,81.77275 -17.28302,25.60442 -36.94827,49.45196 -58.71284,71.21654 -21.76458,21.76457 -45.61212,41.42833 -71.21654,58.71284 -25.60442,17.28302 -52.96722,32.18382 -81.77275,44.34656 -28.80554,12.16243 -59.07316,21.60224 -90.43809,28.00454 -31.36642,6.4013 -63.84058,9.7418 -97.12618,9.7418 -33.2856,0 -65.76124,-3.3405 -97.12618,-9.7418 -31.37089,-6.3576 -61.64,-15.79714 -90.45,-27.96137 -28.79511,-12.16422 -56.16089,-27.068 -81.76978,-44.354 -25.60888,-17.27111 -49.446,-36.93933 -71.21355,-58.70689 -21.76756,-21.76755 -41.43578,-45.60466 -58.71285,-71.21355 -17.28302,-25.60889 -32.18382,-52.97467 -44.346551,-81.76978 -12.162733,-28.81 -21.602289,-59.07911 -28.004511,-90.45 -6.400734,-31.356 -9.7418,-63.82867 -9.7418,-97.12022 0,-33.29156 3.341066,-65.76422 9.7418,-97.12022 6.400733,-31.37089 15.841778,-61.64 28.004511,-90.45 12.162731,-28.79511 27.063531,-56.16089 44.346551,-81.76978 17.27707,-25.60889 36.94529,-49.446 58.71285,-71.21356 21.76755,-21.76755 45.60467,-41.43577 71.21355,-58.71284 25.60889,-17.28302 52.97467,-32.18382 81.76978,-44.34656 28.81,-12.16273 59.07911,-21.60229 90.45,-28.00451 31.356,-6.40073 63.82867,-9.7418 97.12022,-9.7418 z" id="path2987" inkscape:connector-curvature="0" style="fill:#007db8" />
</svg>
