<?xml version="1.0" encoding="UTF-8"?>
<svg width="721.53mm" height="141.48mm" version="1.1" viewBox="0 0 721.53 141.48" xmlns="http://www.w3.org/2000/svg">
 <g transform="translate(95.862 27.01)">
  <g transform="matrix(1.2693 0 0 1.2693 -2036.6 -1539.9)">
   <g transform="translate(-1.34 -.83261)">
    <g fill="#00f">
     <path d="m1698.8 1303.8h-73.588l2.7654-7.5759c31.744-1.9243 45.693-28.376 45.693-48.818 0-21.643-17.315-46.532-48.818-47.133l2.6459-7.5743h72.746c5.7712 0 11.182 5.4112 11.182 10.461v85.252c0 9.978-3.9679 15.389-12.626 15.389z"/>
     <path d="m1600.5 1303.8h-57.595c-8.6575 0-12.626-5.4111-12.626-15.391v-85.252c0-5.0496 5.4112-10.461 11.182-10.461h61.082l-2.5248 7.4549c-18.277 7.2144-32.344 25.613-32.344 47.254 0 20.442 12.023 40.282 35.712 48.097z"/>
     <g transform="matrix(1.6821 0 0 1.6821 1138.5 839.51)">
      <path d="m287.63 237.44c-0.429 1.287-6.434 18.157-6.434 18.157h-7.006l7.721-21.731h-3.86l-7.72 21.731h-6.791l16.227-45.607h6.791l-7.148 20.087h5.075c2.43 0 4.146 1.787 4.146 3.86 0 1.001-0.715 2.717-1.001 3.503z"/>
      <path d="m310.29 237.37c-0.429 1.287-4.432 12.581-5.147 14.511s-1.715 4.718-5.004 4.718h-7.648l-7.005 19.444h-7.005l16.37-45.965h12.295c2.359 0 4.146 1.787 4.146 3.86-2e-3 0.858-0.502 2.073-1.002 3.432zm-9.722-3.503-6.719 18.944h3.86l6.719-18.944z"/>
     </g>
     <path d="m1773 1269.1h-19.72v13.467h19.72c2.7653 0 4.5684-3.2464 4.5684-6.7333 0-3.3675-1.8031-6.7333-4.5684-6.7333zm39.92-2.6459-8.898 20.562h17.796zm155.11 0.4811-8.8981 20.08h17.556zm62.166 2.2842h-19.239v13.828h18.878c3.4869 0 5.4112-3.4869 5.4112-6.8527 0-3.4886-2.2842-6.9755-5.0495-6.9755zm57.114 0.7216c-1.2026-1.0832-2.7653-1.4432-4.5684-1.4432h-18.518v26.573h18.518c1.6837 0 3.3658-0.2405 4.449-1.2027 1.4432-1.4432 2.1631-5.1706 2.1631-12.506 0-7.2127-0.2405-10.099-2.0437-11.421zm-310.94 21.524h-23.086v12.385h-9.4986v-43.527h31.503c7.5743 0 11.904 6.1328 11.904 15.751 0 8.777-4.3279 15.391-10.822 15.391zm52.786 12.385-3.608-8.2975h-25.251l-3.7274 8.2975h-9.9813l18.997-43.527h9.0192c4.2085 0 6.1328 1.5627 7.5743 4.5685 0.9622 2.0437 17.194 38.958 17.194 38.958zm57.114-3.4869c-3.2464 3.2464-5.4112 3.8486-19.359 3.8486-13.468 0-15.874-0.2405-19.239-3.8486-3.1269-3.2463-3.7274-8.5381-3.7274-18.398 0-9.4986 0.6005-14.789 3.7274-18.035 3.3658-3.6081 5.7711-3.8486 19.239-3.8486 13.948 0 16.112 0.6005 19.359 3.8486 1.4432 1.4415 2.2842 3.9679 2.2842 6.7332v2.7653h-9.1386s-0.1211-2.6458-0.841-3.608c-0.8411-1.0815-2.767-1.5626-11.784-1.5626-9.4986 0-10.942 0.1194-11.904 1.3221-0.9622 1.0832-1.3238 3.4869-1.3238 12.385 0 9.0192 0.3616 11.424 1.3238 12.506 0.9621 1.2027 2.4036 1.3238 11.904 1.3238 9.0175 0 10.942-0.4811 11.784-1.5643 0.7199-0.9622 0.6005-2.2843 0.6005-3.6081h9.3791v3.0059c0 2.767-0.841 5.2917-2.2842 6.7349zm35.352-19.601 16.954 17.196v5.8922h-7.0933l-18.277-18.398h-6.1328v18.398h-9.4986v-43.527h9.4986v15.872h6.1328l16.112-15.872h12.866zm62.645 23.088-3.8469-8.2975h-25.01l-3.7274 8.2975h-7.576v-5.8922l16.715-37.636h8.7786c4.328 0 6.2523 1.5627 7.5744 4.5685 0.9621 2.0437 17.196 38.958 17.196 38.958h-10.102zm55.673-13.707c2.0437 1.4432 3.3658 3.7274 3.3658 6.0116v7.6954h-9.3792v-6.6138c0-2.4053-2.0454-5.5306-6.9738-5.5306h-15.991v12.144h-9.4986v-43.527h30.66c7.5743 0 12.987 7.0933 12.987 16.594 0 6.1311-1.8048 10.94-5.1706 13.226zm53.866 11.423c-2.8847 2.2842-6.0117 2.2842-8.2959 2.2842h-30.782v-43.527h30.782c2.5247 0 6.1328 0.36 8.2959 2.2843 2.1648 1.9242 4.9301 4.089 4.9301 18.518s-1.6821 18.035-4.9301 20.44z"/>
     <polygon transform="matrix(1.6821 0 0 1.6821 1138.5 839.51)" points="570.54 209.99 570.54 215.49 561.89 215.49 561.89 235.87 556.24 235.87 556.24 215.49 547.66 215.49 547.66 209.99"/>
     <polygon transform="matrix(1.6821 0 0 1.6821 1138.5 839.51)" points="543.16 209.99 543.16 215.49 534.51 215.49 534.51 235.87 528.86 235.87 528.86 215.49 520.28 215.49 520.28 209.99"/>
     <path d="m1972.3 1236.3c-3.968 0-7.6955-2.2842-7.6955-6.4927v-30.541c0-3.7275 3.127-6.4928 7.6955-6.4928h32.585v9.2581h-30.782v7.6954h26.935v8.2959h-26.935v9.0175h31.984v9.2581h-33.788z"/>
     <path d="m1930.4 1236.3c-3.968 0-7.6954-2.2842-7.6954-6.4927v-37.034h9.4986v34.269h27.414v9.258h-29.217z"/>
     <path d="m1901.1 1236.3h-7.576c-1.9242 0-4.6895-1.8048-5.6517-5.0495-0.841-3.3675-6.6138-25.732-6.6138-25.732l-8.417 30.782h-7.2144c-2.1648 0-4.6896-1.4432-6.2522-6.1327-1.4432-4.5685-11.663-37.394-11.663-37.394h9.8585l9.1387 30.06 9.3791-30.06h10.582l9.258 30.06 9.6197-30.06h10.099z"/>
     <path d="m1807.9 1236.3c-4.0891 0-7.6954-2.2842-7.6954-6.4927v-30.541c0-3.7275 3.0058-6.4928 7.6954-6.4928h32.586v9.2581h-30.782v7.6954h26.935v8.2959h-26.935v9.0175h31.984v9.2581h-33.789z"/>
     <polygon transform="matrix(1.6821 0 0 1.6821 1138.5 839.51)" points="386.82 209.99 386.82 235.87 381.17 235.87 381.17 225 365.52 225 365.52 235.87 359.87 235.87 359.87 209.99 365.52 209.99 365.52 220.07 381.17 220.07 381.17 209.99"/>
    </g>
   </g>
  </g>
 </g>
</svg>
