<svg id="Layer_1" data-name="Layer 1" xmlns="http://www.w3.org/2000/svg" width="302.93" height="130.6" viewBox="0 0 302.93 130.6"><title>Walton Group logo - Brandlogos.net</title><path d="M487.11,449.26V406.07a2.47,2.47,0,0,1,2.67-2.64H500a6.83,6.83,0,0,1,4.78,2.63l15.11,18.5V403.43h15.54v43.29a2.42,2.42,0,0,1-2.62,2.58H522.61a6.66,6.66,0,0,1-4.78-2.58l-15.18-18.53v21.07Z" transform="translate(-232.54 -318.7)" style="fill:#214291;fill-rule:evenodd"/><path d="M287.67,403.4c-2.55,8.92-7,24.33-7,24.33S276.63,412.2,275,406a3.38,3.38,0,0,0-3.33-2.55h-7.58a3.45,3.45,0,0,0-3.36,2.65C259,412.41,255,427.81,255,427.81s-4.51-15.4-7.19-24.39H232.54c3.3,10.84,10.75,35.36,13.2,43.33a3.5,3.5,0,0,0,3.41,2.55h9.38A3.71,3.71,0,0,0,262,446.7c1.78-5.51,5.83-17.93,5.83-17.93s4,12.39,5.85,17.92a3.64,3.64,0,0,0,3.46,2.6h9.39a3.51,3.51,0,0,0,3.43-2.6c2.45-8.07,9.94-32.57,13.13-43.29Z" transform="translate(-232.54 -318.7)" style="fill:#214291;fill-rule:evenodd"/><path d="M357.24,403.37v43.35a2.39,2.39,0,0,0,2.63,2.58h28.34V436.54H372.79V403.37Z" transform="translate(-232.54 -318.7)" style="fill:#214291;fill-rule:evenodd"/><polygon points="150.89 84.73 150.89 97.48 164.29 97.48 164.29 127.99 164.29 130.6 166.93 130.6 177.18 130.6 179.84 130.6 179.84 127.99 179.84 97.48 193.21 97.48 193.21 84.73 150.89 84.73" style="fill:#214291;fill-rule:evenodd"/><path d="M452.58,417.57a5.39,5.39,0,0,0-5.37,5.36v6.85a5.39,5.39,0,0,0,5.37,5.37h7.64a5.4,5.4,0,0,0,5.37-5.37v-6.85a5.39,5.39,0,0,0-5.37-5.36Zm-4.4-14.14c-11,0-15.24,5.38-15.24,15.2v15.46c0,9.77,4.2,15.21,15.24,15.21h16.44c11,0,15.23-5.47,15.23-15.21V418.63c0-9.95-4.28-15.2-15.23-15.2Z" transform="translate(-232.54 -318.7)" style="fill:#214291;fill-rule:evenodd"/><path d="M350,449.3l-.8-2.59c-2.47-8-9.93-32.49-12.4-40.62a3.51,3.51,0,0,0-3.43-2.65h-18a3.5,3.5,0,0,0-3.46,2.63c-2.45,8.09-9.94,32.63-12.38,40.66l-.79,2.58h15.57s.3-1.13.71-2.62l2.1-7.42h14.56s1.25,4.44,2.09,7.4l.71,2.64Zm-21.13-19.53h-9.07l4.54-16.5Z" transform="translate(-232.54 -318.7)" style="fill:#214291;fill-rule:evenodd"/><path d="M311.11,322.13H336s6.65-.35,11.17,6.82l7.29,11.77-6.35,8.73s5.63,15.29,21.74,15.05l7.89,12s-1.36,1.76-5.79,8.8-9.37,6.55-10.12,6.65c0,0-7-.34-12.49-9.17Z" transform="translate(-232.54 -318.7)" style="fill:#214291"/><path d="M401.83,337.81s-2.79,5.36-5.69,8.18c0,0,5.6,17.59,23,20.48l6.24,10s-7.47,14.13-16.62,16.25c0,0-8.18,1.84-15.33-13.21,0,0-12.51-24.64-15.16-23.5,0,0-15.24,7.81-23.36-6l17.72-24.66s9.86-14.44,20.9-.63Z" transform="translate(-232.54 -318.7)" style="fill:#c02127"/><path d="M456.89,320H429.43s-9.1-.65-17.38,12c0,0-5.58,10.23-8.83,15.16,0,0,18.41,33,40.4-5.52Z" transform="translate(-232.54 -318.7)" style="fill:#214291"/></svg>